{"title":"IT'S ENTERTAINMENT (2014) - New DVDScr - x264 - 1CDRip (Audio Cl","uid":10726236,"size":735744305,"categoryP":"video","categoryS":"movies","magnet":"?xt=urn:btih:e1e868feabb294f7949f8945060fb989325e23c8&amp;dn=IT%27S+ENTERTAINMENT+%282014%29+-+New+DVDScr+-+x264+-+1CDRip+%28Audio+Cl&amp;tr=udp%3A%2F%2Ftracker.openbittorrent.com%3A80&amp;tr=udp%3A%2F%2Fopen.demonii.com%3A1337&amp;tr=udp%3A%2F%2Ftracker.coppersurfer.tk%3A6969&amp;tr=udp%3A%2F%2Fexodus.desync.com%3A6969","seeders":1,"leechers":2,"uploader":"Palash995","files":-1,"time":1407564219,"description":"\n\nScreenshots:-\n &lt;a href=&quot;\nhttp://i.imgur.com/Y0LuzKA.png&quot; rel=&quot;nofollow&quot; target=&quot;_NEW&quot;&gt;\nhttp://i.imgur.com/Y0LuzKA.png&lt;/a&gt;\n &lt;a href=&quot;\nhttp://i.imgur.com/lMnxyry.png&quot; rel=&quot;nofollow&quot; target=&quot;_NEW&quot;&gt;\nhttp://i.imgur.com/lMnxyry.png&lt;/a&gt;\n &lt;a href=&quot;\nhttp://i.imgur.com/bX2G4A3.png&quot; rel=&quot;nofollow&quot; target=&quot;_NEW&quot;&gt;\nhttp://i.imgur.com/bX2G4A3.png&lt;/a&gt;\n &lt;a href=&quot;\nhttp://i.imgur.com/A9OM3Jb.png&quot; rel=&quot;nofollow&quot; target=&quot;_NEW&quot;&gt;\nhttp://i.imgur.com/A9OM3Jb.png&lt;/a&gt;\n &lt;a href=&quot;\nhttp://i.imgur.com/1vfgYyK.png&quot; rel=&quot;nofollow&quot; target=&quot;_NEW&quot;&gt;\nhttp://i.imgur.com/1vfgYyK.png&lt;/a&gt;\n &lt;a href=&quot;\nhttp://i.imgur.com/A0NK1jF.png&quot; rel=&quot;nofollow&quot; target=&quot;_NEW&quot;&gt;\nhttp://i.imgur.com/A0NK1jF.png&lt;/a&gt;\n &lt;a href=&quot;\nhttp://i.imgur.com/DUy8dqr.png&quot; rel=&quot;nofollow&quot; target=&quot;_NEW&quot;&gt;\nhttp://i.imgur.com/DUy8dqr.png&lt;/a&gt;\n &lt;a href=&quot;\nhttp://i.imgur.com/zQ4S4Le.png&quot; rel=&quot;nofollow&quot; target=&quot;_NEW&quot;&gt;\nhttp://i.imgur.com/zQ4S4Le.png&lt;/a&gt;\n &lt;a href=&quot;\nhttp://i.imgur.com/zqko26g.png&quot; rel=&quot;nofollow&quot; target=&quot;_NEW&quot;&gt;\nhttp://i.imgur.com/zqko26g.png&lt;/a&gt;\n &lt;a href=&quot;\nhttp://i.imgur.com/K0foZJl.png&quot; rel=&quot;nofollow&quot; target=&quot;_NEW&quot;&gt;\nhttp://i.imgur.com/K0foZJl.png&lt;/a&gt;\n &lt;a href=&quot;\nhttp://i.imgur.com/POAx6l4.png&quot; rel=&quot;nofollow&quot; target=&quot;_NEW&quot;&gt;\nhttp://i.imgur.com/POAx6l4.png&lt;/a&gt;\n &lt;a href=&quot;\nhttp://i.imgur.com/hMEuIB6.png&quot; rel=&quot;nofollow&quot; target=&quot;_NEW&quot;&gt;\nhttp://i.imgur.com/hMEuIB6.png&lt;/a&gt;\n &lt;a href=&quot;\nhttp://i.imgur.com/0n7Rcdy.png&quot; rel=&quot;nofollow&quot; target=&quot;_NEW&quot;&gt;\nhttp://i.imgur.com/0n7Rcdy.png&lt;/a&gt;\n &lt;a href=&quot;\nhttp://i.imgur.com/e0teLoV.png&quot; rel=&quot;nofollow&quot; target=&quot;_NEW&quot;&gt;\nhttp://i.imgur.com/e0teLoV.png&lt;/a&gt;\n &lt;a href=&quot;\nhttp://i.imgur.com/CcktI3z.png&quot; rel=&quot;nofollow&quot; target=&quot;_NEW&quot;&gt;\nhttp://i.imgur.com/CcktI3z.png&lt;/a&gt;\n &lt;a href=&quot;\nhttp://i.imgur.com/mfiQaQ2.png&quot; rel=&quot;nofollow&quot; target=&quot;_NEW&quot;&gt;\nhttp://i.imgur.com/mfiQaQ2.png&lt;/a&gt;\n &lt;a href=&quot;\nhttp://i.imgur.com/9HwiMaw.png&quot; rel=&quot;nofollow&quot; target=&quot;_NEW&quot;&gt;\nhttp://i.imgur.com/9HwiMaw.png&lt;/a&gt;\n\nMedia Info:-\n\nGeneral\nComplete name                            : IT'S ENTERTAINMENT (2014) - New DVDScr - x264 - 1CDRip (Audio Cleaned) - {GreatPalash}.avi\nFormat                                   : AVI\nFormat/Info                              : Audio Video Interleave\nFile size                                : 695 MiB\nDuration                                 : 2h 18mn\nOverall bit rate                         : 701 Kbps\n\nVideo\nID                                       : 0\nFormat                                   : MPEG-4 Visual\nFormat profile                           : Advanced Simple@L5\nFormat settings, BVOP                    : 2\nFormat settings, QPel                    : No\nFormat settings, GMC                     : No warppoints\nFormat settings, Matrix                  : Default (H.263)\nCodec ID                                 : XVID\nCodec ID/Hint                            : XviD\nDuration                                 : 2h 18mn\nBit rate                                 : 567 Kbps\nWidth                                    : 640 pixels\nHeight                                   : 256 pixels\nDisplay aspect ratio                     : 2.500\nFrame rate                               : 23.976 fps\nColor space                              : YUV\nChroma subsampling                       : 4:2:0\nBit depth                                : 8 bits\nScan type                                : Progressive\nCompression mode                         : Lossy\nBits/(Pixel*Frame)                       : 0.144\nStream size                              : 562 MiB (81%)\n\nAudio\nID                                       : 1\nFormat                                   : MPEG Audio\nFormat version                           : Version 1\nFormat profile                           : Layer 3\nMode                                     : Joint stereo\nMode extension                           : MS Stereo\nCodec ID                                 : 55\nCodec ID/Hint                            : MP3\nDuration                                 : 2h 18mn\nBit rate mode                            : Constant\nBit rate                                 : 128 Kbps\nChannel(s)                               : 2 channels\nSampling rate                            : 48.0 KHz\nCompression mode                         : Lossy\nStream size                              : 127 MiB (18%)\nAlignment                                : Aligned on interleaves\nInterleave, duration                     : 167 ms (4.00 video frames)\nInterleave, preload duration             : 216 ms","torrent":{"xt":"urn:btih:e1e868feabb294f7949f8945060fb989325e23c8","amp;dn":"IT%27S+ENTERTAINMENT+%282014%29+-+New+DVDScr+-+x264+-+1CDRip+%28Audio+Cl","amp;tr":["udp%3A%2F%2Ftracker.openbittorrent.com%3A80","udp%3A%2F%2Fopen.demonii.com%3A1337","udp%3A%2F%2Ftracker.coppersurfer.tk%3A6969","udp%3A%2F%2Fexodus.desync.com%3A6969"],"infoHash":"e1e868feabb294f7949f8945060fb989325e23c8","infoHashBuffer":{"type":"Buffer","data":[225,232,104,254,171,178,148,247,148,159,137,69,6,15,185,137,50,94,35,200]},"announce":[],"urlList":[]}}